<?xml version="1.0" standalone="no"?><!DOCTYPE svg PUBLIC "-//W3C//DTD SVG 1.1//EN" "http://www.w3.org/Graphics/SVG/1.1/DTD/svg11.dtd"><svg t="1724122913937" class="icon" viewBox="0 0 1024 1024" version="1.1" xmlns="http://www.w3.org/2000/svg" p-id="18463" xmlns:xlink="http://www.w3.org/1999/xlink" width="200" height="200"><path d="M855.733 63.84H168.266c-57.673 0-104.426 46.753-104.426 104.426v687.469c0 57.672 46.753 104.425 104.426 104.425h687.467c57.673 0 104.425-46.753 104.425-104.425V168.266c0-57.673-46.751-104.426-104.425-104.426zM724.778 539.673c-5.285 13.393-17.958 33.711-31.211 46.047-14.599 13.586-21.436 18.96-35.678 21.563-7.648 1.399 7.612-17.065 12.645-22.575 19.837-21.795 28.536-57.635 25.994-86.73-4.04-45.862-58.316-108.706-96.938-116.974l-63.732 259.038c-15.705 63.833-24.084 89.28-51.118 113.141-65.716 58.007-163.95 63.997-191.107-10.799-5.093-14.026-10.535-40.192-0.166-61.472 31.8-65.397 131.97-90.96 199.635-37.42l102.62-417.095 32.316 7.951c-14.438 115.568 153.154 162.037 96.74 305.325z" p-id="18464" fill="#8a8a8a"></path></svg>